<?xml version="1.0" encoding="utf-8"?><svg xmlns="http://www.w3.org/2000/svg" xmlns:xlink="http://www.w3.org/1999/xlink"><symbol viewBox="-8 -8 528 528" id="arrow" xmlns="http://www.w3.org/2000/svg"><path fill="currentColor" d="M8 256C8 119 119 8 256 8s248 111 248 248-111 248-248 248S8 393 8 256zm231-113.9L103.5 277.6c-9.4 9.4-9.4 24.6 0 33.9l17 17c9.4 9.4 24.6 9.4 33.9 0L256 226.9l101.6 101.6c9.4 9.4 24.6 9.4 33.9 0l17-17c9.4-9.4 9.4-24.6 0-33.9L273 142.1c-9.4-9.4-24.6-9.4-34 0z"/></symbol><symbol viewBox="-8 -8 67 67" id="test-circ" xmlns="http://www.w3.org/2000/svg"><circle cx="25.5" cy="25.5" r="25" stroke="#000" stroke-miterlimit="10"/></symbol><symbol viewBox="-8 -8 67 67" id="test-rect" xmlns="http://www.w3.org/2000/svg"><path stroke="#000" stroke-miterlimit="10" d="M.5.5h50v50H.5z"/></symbol><symbol viewBox="-8 -8 67 67" id="test-star" xmlns="http://www.w3.org/2000/svg"><path stroke="#000" stroke-miterlimit="10" d="M25.5 2.887l8.817 12.865 14.959 4.41-9.51 12.361.429 15.59L25.5 42.887l-14.695 5.226.429-15.59-9.51-12.361 14.959-4.41z"/></symbol></svg>